<mxfile host="app.diagrams.net" modified="2020-12-08T09:52:42.061Z" agent="5.0 (Windows NT 10.0; Win64; x64) AppleWebKit/537.36 (KHTML, like Gecko) Chrome/87.0.4280.66 Safari/537.36" etag="ciwCr6EJ8XrmQyr4Y_LZ" version="13.8.1" type="github">
  <diagram id="C5RBs43oDa-KdzZeNtuy" name="Page-1">
    <mxGraphModel dx="2701" dy="-373" grid="1" gridSize="10" guides="1" tooltips="1" connect="1" arrows="1" fold="1" page="1" pageScale="1" pageWidth="827" pageHeight="1169" math="0" shadow="0">
      <root>
        <mxCell id="WIyWlLk6GJQsqaUBKTNV-0" />
        <mxCell id="WIyWlLk6GJQsqaUBKTNV-1" parent="WIyWlLk6GJQsqaUBKTNV-0" />
        <mxCell id="MOtrbbV4XvPzGapGwvdg-0" value="" style="rounded=1;whiteSpace=wrap;html=1;shadow=1;glass=0;sketch=0;strokeWidth=1;gradientColor=none;" parent="WIyWlLk6GJQsqaUBKTNV-1" vertex="1">
          <mxGeometry x="-820" y="1560" width="1500" height="1140" as="geometry" />
        </mxCell>
        <mxCell id="MOtrbbV4XvPzGapGwvdg-40" value="开始" style="strokeWidth=2;html=1;shape=mxgraph.flowchart.start_1;whiteSpace=wrap;fillColor=#e1d5e7;strokeColor=#9673a6;" parent="WIyWlLk6GJQsqaUBKTNV-1" vertex="1">
          <mxGeometry x="297.13" y="1580" width="82" height="50" as="geometry" />
        </mxCell>
        <mxCell id="mS3H4aOOXCstNZzSepwQ-0" style="edgeStyle=orthogonalEdgeStyle;rounded=0;orthogonalLoop=1;jettySize=auto;html=1;exitX=0.5;exitY=1;exitDx=0;exitDy=0;exitPerimeter=0;entryX=0.5;entryY=0;entryDx=0;entryDy=0;" edge="1" parent="WIyWlLk6GJQsqaUBKTNV-1" source="MOtrbbV4XvPzGapGwvdg-47" target="MOtrbbV4XvPzGapGwvdg-54">
          <mxGeometry relative="1" as="geometry" />
        </mxCell>
        <mxCell id="mS3H4aOOXCstNZzSepwQ-3" style="edgeStyle=orthogonalEdgeStyle;rounded=0;orthogonalLoop=1;jettySize=auto;html=1;exitX=0;exitY=0.5;exitDx=0;exitDy=0;exitPerimeter=0;" edge="1" parent="WIyWlLk6GJQsqaUBKTNV-1" source="MOtrbbV4XvPzGapGwvdg-47" target="MOtrbbV4XvPzGapGwvdg-97">
          <mxGeometry relative="1" as="geometry" />
        </mxCell>
        <mxCell id="MOtrbbV4XvPzGapGwvdg-47" value="" style="verticalLabelPosition=bottom;verticalAlign=top;html=1;shape=mxgraph.flowchart.parallel_mode;pointerEvents=1;rounded=1;shadow=1;glass=0;sketch=0;strokeWidth=1;gradientColor=none;" parent="WIyWlLk6GJQsqaUBKTNV-1" vertex="1">
          <mxGeometry x="255.63" y="1680" width="165" height="40" as="geometry" />
        </mxCell>
        <mxCell id="MOtrbbV4XvPzGapGwvdg-52" style="edgeStyle=orthogonalEdgeStyle;rounded=0;orthogonalLoop=1;jettySize=auto;html=1;exitX=0.5;exitY=1;exitDx=0;exitDy=0;" parent="WIyWlLk6GJQsqaUBKTNV-1" source="MOtrbbV4XvPzGapGwvdg-54" target="MOtrbbV4XvPzGapGwvdg-71" edge="1">
          <mxGeometry relative="1" as="geometry" />
        </mxCell>
        <mxCell id="MOtrbbV4XvPzGapGwvdg-53" style="edgeStyle=orthogonalEdgeStyle;rounded=0;orthogonalLoop=1;jettySize=auto;html=1;exitX=0;exitY=0.5;exitDx=0;exitDy=0;entryX=0.93;entryY=0.5;entryDx=0;entryDy=0;entryPerimeter=0;" parent="WIyWlLk6GJQsqaUBKTNV-1" source="MOtrbbV4XvPzGapGwvdg-54" target="MOtrbbV4XvPzGapGwvdg-57" edge="1">
          <mxGeometry relative="1" as="geometry" />
        </mxCell>
        <mxCell id="MOtrbbV4XvPzGapGwvdg-54" value="&lt;font face=&quot;Courier New&quot;&gt;received configure from confd-adapter&amp;nbsp;&lt;/font&gt;" style="rounded=1;whiteSpace=wrap;html=1;absoluteArcSize=1;arcSize=14;strokeWidth=2;shadow=1;glass=0;sketch=0;fillColor=#fff2cc;strokeColor=#d6b656;" parent="WIyWlLk6GJQsqaUBKTNV-1" vertex="1">
          <mxGeometry x="267.82" y="1830" width="140.62" height="50" as="geometry" />
        </mxCell>
        <mxCell id="MOtrbbV4XvPzGapGwvdg-57" value="&lt;font face=&quot;Courier New&quot;&gt;etcd&lt;/font&gt;" style="strokeWidth=2;html=1;shape=mxgraph.flowchart.stored_data;whiteSpace=wrap;rounded=1;shadow=1;glass=0;sketch=0;fillColor=#d5e8d4;strokeColor=#82b366;" parent="WIyWlLk6GJQsqaUBKTNV-1" vertex="1">
          <mxGeometry x="40" y="1910" width="110" height="55" as="geometry" />
        </mxCell>
        <mxCell id="MOtrbbV4XvPzGapGwvdg-61" value="&lt;font face=&quot;Courier New&quot;&gt;end&lt;/font&gt;" style="strokeWidth=2;html=1;shape=mxgraph.flowchart.terminator;whiteSpace=wrap;rounded=1;shadow=1;glass=0;sketch=0;fillColor=#e1d5e7;strokeColor=#9673a6;" parent="WIyWlLk6GJQsqaUBKTNV-1" vertex="1">
          <mxGeometry x="-398.5" y="2640" width="97" height="46" as="geometry" />
        </mxCell>
        <mxCell id="MOtrbbV4XvPzGapGwvdg-62" style="edgeStyle=orthogonalEdgeStyle;rounded=0;orthogonalLoop=1;jettySize=auto;html=1;exitX=0.5;exitY=1;exitDx=0;exitDy=0;" parent="WIyWlLk6GJQsqaUBKTNV-1" source="MOtrbbV4XvPzGapGwvdg-63" target="MOtrbbV4XvPzGapGwvdg-68" edge="1">
          <mxGeometry relative="1" as="geometry" />
        </mxCell>
        <mxCell id="MOtrbbV4XvPzGapGwvdg-63" value="&lt;font face=&quot;Courier New&quot;&gt;get app config info and send config to then by http&lt;/font&gt;" style="rounded=1;whiteSpace=wrap;html=1;absoluteArcSize=1;arcSize=14;strokeWidth=2;shadow=1;glass=0;sketch=0;fillColor=#fff2cc;strokeColor=#d6b656;" parent="WIyWlLk6GJQsqaUBKTNV-1" vertex="1">
          <mxGeometry x="-187" y="2090" width="160" height="60" as="geometry" />
        </mxCell>
        <mxCell id="MOtrbbV4XvPzGapGwvdg-64" style="edgeStyle=orthogonalEdgeStyle;rounded=0;orthogonalLoop=1;jettySize=auto;html=1;exitX=0.5;exitY=1;exitDx=0;exitDy=0;exitPerimeter=0;" parent="WIyWlLk6GJQsqaUBKTNV-1" source="MOtrbbV4XvPzGapGwvdg-65" target="MOtrbbV4XvPzGapGwvdg-63" edge="1">
          <mxGeometry relative="1" as="geometry" />
        </mxCell>
        <mxCell id="MOtrbbV4XvPzGapGwvdg-65" value="&lt;font face=&quot;Courier New&quot;&gt;if app report,and verison is old, pull&lt;/font&gt;" style="strokeWidth=2;html=1;shape=mxgraph.flowchart.decision;whiteSpace=wrap;rounded=1;shadow=1;glass=0;sketch=0;fillColor=#f8cecc;strokeColor=#b85450;" parent="WIyWlLk6GJQsqaUBKTNV-1" vertex="1">
          <mxGeometry x="-176.5" y="1960" width="137" height="100" as="geometry" />
        </mxCell>
        <mxCell id="MOtrbbV4XvPzGapGwvdg-66" value="yes" style="edgeStyle=orthogonalEdgeStyle;rounded=0;orthogonalLoop=1;jettySize=auto;html=1;fillColor=#60a917;strokeColor=#2D7600;" parent="WIyWlLk6GJQsqaUBKTNV-1" source="MOtrbbV4XvPzGapGwvdg-68" target="MOtrbbV4XvPzGapGwvdg-84" edge="1">
          <mxGeometry relative="1" as="geometry" />
        </mxCell>
        <mxCell id="MOtrbbV4XvPzGapGwvdg-67" value="no" style="edgeStyle=orthogonalEdgeStyle;rounded=0;orthogonalLoop=1;jettySize=auto;html=1;exitX=1;exitY=0.5;exitDx=0;exitDy=0;exitPerimeter=0;entryX=0;entryY=0.5;entryDx=0;entryDy=0;" parent="WIyWlLk6GJQsqaUBKTNV-1" source="MOtrbbV4XvPzGapGwvdg-68" target="MOtrbbV4XvPzGapGwvdg-93" edge="1">
          <mxGeometry relative="1" as="geometry" />
        </mxCell>
        <mxCell id="MOtrbbV4XvPzGapGwvdg-68" value="&lt;font face=&quot;Courier New&quot;&gt;if send successed&lt;/font&gt;" style="strokeWidth=2;html=1;shape=mxgraph.flowchart.decision;whiteSpace=wrap;rounded=1;shadow=1;glass=0;sketch=0;fillColor=#f8cecc;strokeColor=#b85450;" parent="WIyWlLk6GJQsqaUBKTNV-1" vertex="1">
          <mxGeometry x="-157" y="2190" width="100" height="100" as="geometry" />
        </mxCell>
        <mxCell id="MOtrbbV4XvPzGapGwvdg-69" value="yes" style="edgeStyle=orthogonalEdgeStyle;rounded=0;orthogonalLoop=1;jettySize=auto;html=1;exitX=0.5;exitY=1;exitDx=0;exitDy=0;entryX=0.5;entryY=1;entryDx=0;entryDy=0;" parent="WIyWlLk6GJQsqaUBKTNV-1" source="MOtrbbV4XvPzGapGwvdg-86" target="MOtrbbV4XvPzGapGwvdg-81" edge="1">
          <mxGeometry relative="1" as="geometry">
            <mxPoint x="335" y="2230" as="targetPoint" />
          </mxGeometry>
        </mxCell>
        <mxCell id="MOtrbbV4XvPzGapGwvdg-70" style="edgeStyle=orthogonalEdgeStyle;rounded=0;orthogonalLoop=1;jettySize=auto;html=1;exitX=0.5;exitY=1;exitDx=0;exitDy=0;entryX=0.5;entryY=0;entryDx=0;entryDy=0;entryPerimeter=0;" parent="WIyWlLk6GJQsqaUBKTNV-1" source="MOtrbbV4XvPzGapGwvdg-71" target="MOtrbbV4XvPzGapGwvdg-86" edge="1">
          <mxGeometry relative="1" as="geometry" />
        </mxCell>
        <mxCell id="MOtrbbV4XvPzGapGwvdg-71" value="&lt;font face=&quot;Courier New&quot;&gt;storage it in etcd and update cuurent config version&lt;/font&gt;" style="rounded=1;whiteSpace=wrap;html=1;absoluteArcSize=1;arcSize=14;strokeWidth=2;shadow=1;glass=0;sketch=0;fillColor=#fff2cc;strokeColor=#d6b656;" parent="WIyWlLk6GJQsqaUBKTNV-1" vertex="1">
          <mxGeometry x="269.63" y="2015" width="137" height="55" as="geometry" />
        </mxCell>
        <mxCell id="MOtrbbV4XvPzGapGwvdg-78" style="edgeStyle=orthogonalEdgeStyle;rounded=0;orthogonalLoop=1;jettySize=auto;html=1;exitX=0.5;exitY=1;exitDx=0;exitDy=0;" parent="WIyWlLk6GJQsqaUBKTNV-1" source="MOtrbbV4XvPzGapGwvdg-79" target="MOtrbbV4XvPzGapGwvdg-81" edge="1">
          <mxGeometry relative="1" as="geometry" />
        </mxCell>
        <mxCell id="MOtrbbV4XvPzGapGwvdg-79" value="record&amp;nbsp; error" style="whiteSpace=wrap;html=1;rounded=1;strokeWidth=2;arcSize=14;fillColor=#fff2cc;strokeColor=#d6b656;" parent="WIyWlLk6GJQsqaUBKTNV-1" vertex="1">
          <mxGeometry x="478.5" y="2290" width="101.5" height="56.5" as="geometry" />
        </mxCell>
        <mxCell id="MOtrbbV4XvPzGapGwvdg-81" value="&lt;font face=&quot;Courier New&quot;&gt;resp to confd-adapter&lt;/font&gt;" style="rounded=1;whiteSpace=wrap;html=1;absoluteArcSize=1;arcSize=14;strokeWidth=2;shadow=1;glass=0;sketch=0;fillColor=#fff2cc;strokeColor=#d6b656;" parent="WIyWlLk6GJQsqaUBKTNV-1" vertex="1">
          <mxGeometry x="479.25" y="2394.5" width="100" height="81.75" as="geometry" />
        </mxCell>
        <mxCell id="MOtrbbV4XvPzGapGwvdg-84" value="" style="whiteSpace=wrap;html=1;rounded=1;shadow=1;strokeWidth=2;glass=0;sketch=0;" parent="WIyWlLk6GJQsqaUBKTNV-1" vertex="1">
          <mxGeometry x="-167" y="2360" width="120" height="60" as="geometry" />
        </mxCell>
        <mxCell id="MOtrbbV4XvPzGapGwvdg-85" style="edgeStyle=orthogonalEdgeStyle;rounded=0;orthogonalLoop=1;jettySize=auto;html=1;exitX=1;exitY=0.5;exitDx=0;exitDy=0;exitPerimeter=0;" parent="WIyWlLk6GJQsqaUBKTNV-1" source="MOtrbbV4XvPzGapGwvdg-86" target="MOtrbbV4XvPzGapGwvdg-88" edge="1">
          <mxGeometry relative="1" as="geometry" />
        </mxCell>
        <mxCell id="MOtrbbV4XvPzGapGwvdg-86" value="&lt;font face=&quot;Courier New&quot;&gt;if config has storage in etcd&lt;/font&gt;" style="strokeWidth=2;html=1;shape=mxgraph.flowchart.decision;whiteSpace=wrap;rounded=1;shadow=1;glass=0;sketch=0;fillColor=#f8cecc;strokeColor=#b85450;" parent="WIyWlLk6GJQsqaUBKTNV-1" vertex="1">
          <mxGeometry x="288.13" y="2110" width="100" height="80" as="geometry" />
        </mxCell>
        <mxCell id="MOtrbbV4XvPzGapGwvdg-87" style="edgeStyle=orthogonalEdgeStyle;rounded=0;orthogonalLoop=1;jettySize=auto;html=1;exitX=1;exitY=0.5;exitDx=0;exitDy=0;entryX=0;entryY=0.5;entryDx=0;entryDy=0;" parent="WIyWlLk6GJQsqaUBKTNV-1" source="MOtrbbV4XvPzGapGwvdg-88" target="MOtrbbV4XvPzGapGwvdg-91" edge="1">
          <mxGeometry relative="1" as="geometry" />
        </mxCell>
        <mxCell id="MOtrbbV4XvPzGapGwvdg-88" value="retry" style="rounded=1;whiteSpace=wrap;html=1;absoluteArcSize=1;arcSize=14;strokeWidth=2;fillColor=#fff2cc;strokeColor=#d6b656;" parent="WIyWlLk6GJQsqaUBKTNV-1" vertex="1">
          <mxGeometry x="450" y="2124.75" width="77" height="50.5" as="geometry" />
        </mxCell>
        <mxCell id="MOtrbbV4XvPzGapGwvdg-89" value="no" style="edgeStyle=orthogonalEdgeStyle;rounded=0;orthogonalLoop=1;jettySize=auto;html=1;exitX=0.5;exitY=0;exitDx=0;exitDy=0;entryX=1;entryY=0.5;entryDx=0;entryDy=0;fillColor=#d80073;strokeColor=#A50040;" parent="WIyWlLk6GJQsqaUBKTNV-1" source="MOtrbbV4XvPzGapGwvdg-91" target="MOtrbbV4XvPzGapGwvdg-71" edge="1">
          <mxGeometry relative="1" as="geometry" />
        </mxCell>
        <mxCell id="MOtrbbV4XvPzGapGwvdg-90" value="yes" style="edgeStyle=orthogonalEdgeStyle;rounded=0;orthogonalLoop=1;jettySize=auto;html=1;exitX=0.5;exitY=1;exitDx=0;exitDy=0;entryX=0.5;entryY=0;entryDx=0;entryDy=0;fillColor=#008a00;strokeColor=#005700;" parent="WIyWlLk6GJQsqaUBKTNV-1" source="MOtrbbV4XvPzGapGwvdg-91" target="MOtrbbV4XvPzGapGwvdg-79" edge="1">
          <mxGeometry relative="1" as="geometry" />
        </mxCell>
        <mxCell id="MOtrbbV4XvPzGapGwvdg-91" value="if reach the retry count" style="rhombus;whiteSpace=wrap;html=1;rounded=1;strokeWidth=2;arcSize=14;fillColor=#f8cecc;strokeColor=#b85450;" parent="WIyWlLk6GJQsqaUBKTNV-1" vertex="1">
          <mxGeometry x="580" y="2110" width="80" height="80" as="geometry" />
        </mxCell>
        <mxCell id="MOtrbbV4XvPzGapGwvdg-92" style="edgeStyle=orthogonalEdgeStyle;rounded=0;orthogonalLoop=1;jettySize=auto;html=1;exitX=1;exitY=0.5;exitDx=0;exitDy=0;entryX=0;entryY=0.5;entryDx=0;entryDy=0;" parent="WIyWlLk6GJQsqaUBKTNV-1" source="MOtrbbV4XvPzGapGwvdg-93" target="MOtrbbV4XvPzGapGwvdg-95" edge="1">
          <mxGeometry relative="1" as="geometry" />
        </mxCell>
        <mxCell id="MOtrbbV4XvPzGapGwvdg-93" value="retry" style="rounded=1;whiteSpace=wrap;html=1;absoluteArcSize=1;arcSize=14;strokeWidth=2;fillColor=#fff2cc;strokeColor=#d6b656;" parent="WIyWlLk6GJQsqaUBKTNV-1" vertex="1">
          <mxGeometry x="11" y="2214.75" width="77" height="50.5" as="geometry" />
        </mxCell>
        <mxCell id="MOtrbbV4XvPzGapGwvdg-94" style="edgeStyle=orthogonalEdgeStyle;rounded=0;orthogonalLoop=1;jettySize=auto;html=1;exitX=0.5;exitY=0;exitDx=0;exitDy=0;entryX=1;entryY=0.5;entryDx=0;entryDy=0;" parent="WIyWlLk6GJQsqaUBKTNV-1" source="MOtrbbV4XvPzGapGwvdg-95" target="MOtrbbV4XvPzGapGwvdg-63" edge="1">
          <mxGeometry relative="1" as="geometry" />
        </mxCell>
        <mxCell id="MOtrbbV4XvPzGapGwvdg-95" value="if reach the retry count" style="rhombus;whiteSpace=wrap;html=1;rounded=1;strokeWidth=2;arcSize=14;fillColor=#f8cecc;strokeColor=#b85450;" parent="WIyWlLk6GJQsqaUBKTNV-1" vertex="1">
          <mxGeometry x="150" y="2200" width="80" height="80" as="geometry" />
        </mxCell>
        <mxCell id="MOtrbbV4XvPzGapGwvdg-96" style="edgeStyle=orthogonalEdgeStyle;rounded=0;orthogonalLoop=1;jettySize=auto;html=1;exitX=0.5;exitY=1;exitDx=0;exitDy=0;entryX=0.5;entryY=0;entryDx=0;entryDy=0;entryPerimeter=0;" parent="WIyWlLk6GJQsqaUBKTNV-1" source="MOtrbbV4XvPzGapGwvdg-97" target="MOtrbbV4XvPzGapGwvdg-102" edge="1">
          <mxGeometry relative="1" as="geometry" />
        </mxCell>
        <mxCell id="MOtrbbV4XvPzGapGwvdg-97" value="&lt;font face=&quot;Courier New&quot;&gt;watch /conf/admf&lt;/font&gt;" style="rounded=1;whiteSpace=wrap;html=1;absoluteArcSize=1;arcSize=14;strokeWidth=2;shadow=1;glass=0;sketch=0;fillColor=#fff2cc;strokeColor=#d6b656;" parent="WIyWlLk6GJQsqaUBKTNV-1" vertex="1">
          <mxGeometry x="-186.5" y="1723.5" width="160" height="60" as="geometry" />
        </mxCell>
        <mxCell id="MOtrbbV4XvPzGapGwvdg-98" style="edgeStyle=orthogonalEdgeStyle;rounded=0;orthogonalLoop=1;jettySize=auto;html=1;exitX=0.5;exitY=1;exitDx=0;exitDy=0;" parent="WIyWlLk6GJQsqaUBKTNV-1" source="MOtrbbV4XvPzGapGwvdg-99" target="MOtrbbV4XvPzGapGwvdg-61" edge="1">
          <mxGeometry relative="1" as="geometry" />
        </mxCell>
        <mxCell id="MOtrbbV4XvPzGapGwvdg-99" value="&lt;font face=&quot;Lucida Console&quot;&gt;deregister from sm&lt;/font&gt;" style="rounded=1;whiteSpace=wrap;html=1;absoluteArcSize=1;arcSize=14;strokeWidth=2;shadow=1;glass=0;sketch=0;fillColor=#fff2cc;strokeColor=#d6b656;" parent="WIyWlLk6GJQsqaUBKTNV-1" vertex="1">
          <mxGeometry x="-426" y="2540" width="152" height="50" as="geometry" />
        </mxCell>
        <mxCell id="MOtrbbV4XvPzGapGwvdg-100" value="yes" style="edgeStyle=orthogonalEdgeStyle;rounded=0;orthogonalLoop=1;jettySize=auto;html=1;exitX=0;exitY=0.5;exitDx=0;exitDy=0;exitPerimeter=0;entryX=0.5;entryY=0;entryDx=0;entryDy=0;" parent="WIyWlLk6GJQsqaUBKTNV-1" source="MOtrbbV4XvPzGapGwvdg-102" target="MOtrbbV4XvPzGapGwvdg-104" edge="1">
          <mxGeometry relative="1" as="geometry">
            <Array as="points">
              <mxPoint x="-350" y="1870" />
            </Array>
          </mxGeometry>
        </mxCell>
        <mxCell id="MOtrbbV4XvPzGapGwvdg-101" value="no" style="edgeStyle=orthogonalEdgeStyle;rounded=0;orthogonalLoop=1;jettySize=auto;html=1;exitX=0.5;exitY=1;exitDx=0;exitDy=0;exitPerimeter=0;entryX=0.5;entryY=0;entryDx=0;entryDy=0;entryPerimeter=0;" parent="WIyWlLk6GJQsqaUBKTNV-1" source="MOtrbbV4XvPzGapGwvdg-102" target="MOtrbbV4XvPzGapGwvdg-65" edge="1">
          <mxGeometry relative="1" as="geometry" />
        </mxCell>
        <mxCell id="MOtrbbV4XvPzGapGwvdg-102" value="&lt;font face=&quot;Lucida Console&quot;&gt;if verison update,push&lt;/font&gt;" style="strokeWidth=2;html=1;shape=mxgraph.flowchart.decision;whiteSpace=wrap;rounded=1;shadow=1;glass=0;sketch=0;fillColor=#f8cecc;strokeColor=#b85450;" parent="WIyWlLk6GJQsqaUBKTNV-1" vertex="1">
          <mxGeometry x="-176.5" y="1830" width="140" height="80" as="geometry" />
        </mxCell>
        <mxCell id="MOtrbbV4XvPzGapGwvdg-103" style="edgeStyle=orthogonalEdgeStyle;rounded=0;orthogonalLoop=1;jettySize=auto;html=1;exitX=0.5;exitY=1;exitDx=0;exitDy=0;entryX=0.5;entryY=0;entryDx=0;entryDy=0;entryPerimeter=0;" parent="WIyWlLk6GJQsqaUBKTNV-1" source="MOtrbbV4XvPzGapGwvdg-104" target="MOtrbbV4XvPzGapGwvdg-106" edge="1">
          <mxGeometry relative="1" as="geometry" />
        </mxCell>
        <mxCell id="MOtrbbV4XvPzGapGwvdg-104" value="&lt;font face=&quot;Lucida Console&quot;&gt;request etcd to get app info which include app`s ip, port, config name&lt;/font&gt;" style="rounded=1;whiteSpace=wrap;html=1;absoluteArcSize=1;arcSize=14;strokeWidth=2;shadow=1;glass=0;sketch=0;fillColor=#fff2cc;strokeColor=#d6b656;" parent="WIyWlLk6GJQsqaUBKTNV-1" vertex="1">
          <mxGeometry x="-440" y="1910" width="180" height="70" as="geometry" />
        </mxCell>
        <mxCell id="MOtrbbV4XvPzGapGwvdg-105" style="edgeStyle=orthogonalEdgeStyle;rounded=0;orthogonalLoop=1;jettySize=auto;html=1;exitX=0.5;exitY=1;exitDx=0;exitDy=0;exitPerimeter=0;" parent="WIyWlLk6GJQsqaUBKTNV-1" source="MOtrbbV4XvPzGapGwvdg-106" edge="1">
          <mxGeometry relative="1" as="geometry">
            <mxPoint x="-350" y="2176.5" as="targetPoint" />
          </mxGeometry>
        </mxCell>
        <mxCell id="MOtrbbV4XvPzGapGwvdg-106" value="&lt;font face=&quot;Lucida Console&quot;&gt;if get app info successed&lt;/font&gt;" style="strokeWidth=2;html=1;shape=mxgraph.flowchart.decision;whiteSpace=wrap;rounded=1;shadow=1;glass=0;sketch=0;fillColor=#f8cecc;strokeColor=#b85450;" parent="WIyWlLk6GJQsqaUBKTNV-1" vertex="1">
          <mxGeometry x="-400" y="2024.75" width="100" height="100" as="geometry" />
        </mxCell>
        <mxCell id="MOtrbbV4XvPzGapGwvdg-107" style="edgeStyle=orthogonalEdgeStyle;rounded=0;orthogonalLoop=1;jettySize=auto;html=1;exitX=0.5;exitY=1;exitDx=0;exitDy=0;exitPerimeter=0;entryX=0.5;entryY=0;entryDx=0;entryDy=0;" parent="WIyWlLk6GJQsqaUBKTNV-1" source="MOtrbbV4XvPzGapGwvdg-110" target="MOtrbbV4XvPzGapGwvdg-111" edge="1">
          <mxGeometry relative="1" as="geometry">
            <Array as="points">
              <mxPoint x="-350" y="2240" />
              <mxPoint x="-520" y="2240" />
            </Array>
          </mxGeometry>
        </mxCell>
        <mxCell id="MOtrbbV4XvPzGapGwvdg-108" style="edgeStyle=orthogonalEdgeStyle;rounded=0;orthogonalLoop=1;jettySize=auto;html=1;exitX=0.5;exitY=1;exitDx=0;exitDy=0;exitPerimeter=0;" parent="WIyWlLk6GJQsqaUBKTNV-1" source="MOtrbbV4XvPzGapGwvdg-110" target="MOtrbbV4XvPzGapGwvdg-112" edge="1">
          <mxGeometry relative="1" as="geometry" />
        </mxCell>
        <mxCell id="MOtrbbV4XvPzGapGwvdg-109" style="edgeStyle=orthogonalEdgeStyle;rounded=0;orthogonalLoop=1;jettySize=auto;html=1;exitX=0.5;exitY=1;exitDx=0;exitDy=0;exitPerimeter=0;" parent="WIyWlLk6GJQsqaUBKTNV-1" source="MOtrbbV4XvPzGapGwvdg-110" target="MOtrbbV4XvPzGapGwvdg-113" edge="1">
          <mxGeometry relative="1" as="geometry">
            <Array as="points">
              <mxPoint x="-350" y="2240" />
              <mxPoint x="-217" y="2240" />
            </Array>
          </mxGeometry>
        </mxCell>
        <mxCell id="MOtrbbV4XvPzGapGwvdg-110" value="" style="verticalLabelPosition=bottom;verticalAlign=top;html=1;shape=mxgraph.flowchart.parallel_mode;pointerEvents=1;rounded=1;shadow=1;glass=0;sketch=0;strokeWidth=1;gradientColor=none;" parent="WIyWlLk6GJQsqaUBKTNV-1" vertex="1">
          <mxGeometry x="-397.5" y="2174.75" width="95" height="40" as="geometry" />
        </mxCell>
        <mxCell id="MOtrbbV4XvPzGapGwvdg-111" value="&lt;font face=&quot;Courier New&quot;&gt;send config to app&lt;/font&gt;" style="rounded=1;whiteSpace=wrap;html=1;absoluteArcSize=1;arcSize=14;strokeWidth=2;shadow=1;glass=0;sketch=0;fillColor=#fff2cc;strokeColor=#d6b656;" parent="WIyWlLk6GJQsqaUBKTNV-1" vertex="1">
          <mxGeometry x="-550" y="2268.25" width="100" height="31.75" as="geometry" />
        </mxCell>
        <mxCell id="MOtrbbV4XvPzGapGwvdg-112" value="&lt;font face=&quot;Courier New&quot;&gt;...&lt;/font&gt;" style="rounded=1;whiteSpace=wrap;html=1;absoluteArcSize=1;arcSize=14;strokeWidth=2;shadow=1;glass=0;sketch=0;fillColor=#fff2cc;strokeColor=#d6b656;" parent="WIyWlLk6GJQsqaUBKTNV-1" vertex="1">
          <mxGeometry x="-400" y="2268.25" width="100" height="31.75" as="geometry" />
        </mxCell>
        <mxCell id="MOtrbbV4XvPzGapGwvdg-113" value="&lt;font face=&quot;Courier New&quot;&gt;send config to app&lt;/font&gt;" style="rounded=1;whiteSpace=wrap;html=1;absoluteArcSize=1;arcSize=14;strokeWidth=2;shadow=1;glass=0;sketch=0;fillColor=#fff2cc;strokeColor=#d6b656;" parent="WIyWlLk6GJQsqaUBKTNV-1" vertex="1">
          <mxGeometry x="-267" y="2268.25" width="100" height="31.75" as="geometry" />
        </mxCell>
        <mxCell id="MOtrbbV4XvPzGapGwvdg-114" value="no" style="edgeStyle=orthogonalEdgeStyle;rounded=0;orthogonalLoop=1;jettySize=auto;html=1;exitX=0;exitY=0.5;exitDx=0;exitDy=0;exitPerimeter=0;" parent="WIyWlLk6GJQsqaUBKTNV-1" source="MOtrbbV4XvPzGapGwvdg-115" target="MOtrbbV4XvPzGapGwvdg-119" edge="1">
          <mxGeometry relative="1" as="geometry" />
        </mxCell>
        <mxCell id="mS3H4aOOXCstNZzSepwQ-2" style="edgeStyle=orthogonalEdgeStyle;rounded=0;orthogonalLoop=1;jettySize=auto;html=1;entryX=0.5;entryY=0;entryDx=0;entryDy=0;" edge="1" parent="WIyWlLk6GJQsqaUBKTNV-1" source="MOtrbbV4XvPzGapGwvdg-115" target="MOtrbbV4XvPzGapGwvdg-99">
          <mxGeometry relative="1" as="geometry" />
        </mxCell>
        <mxCell id="MOtrbbV4XvPzGapGwvdg-115" value="&lt;font face=&quot;Courier New&quot;&gt;if send failed&lt;/font&gt;" style="strokeWidth=2;html=1;shape=mxgraph.flowchart.decision;whiteSpace=wrap;rounded=1;shadow=1;glass=0;sketch=0;fillColor=#f8cecc;strokeColor=#b85450;" parent="WIyWlLk6GJQsqaUBKTNV-1" vertex="1">
          <mxGeometry x="-400" y="2413" width="100" height="76" as="geometry" />
        </mxCell>
        <mxCell id="MOtrbbV4XvPzGapGwvdg-116" style="edgeStyle=orthogonalEdgeStyle;rounded=0;orthogonalLoop=1;jettySize=auto;html=1;exitX=0.5;exitY=1;exitDx=0;exitDy=0;exitPerimeter=0;entryX=0.5;entryY=0;entryDx=0;entryDy=0;entryPerimeter=0;" parent="WIyWlLk6GJQsqaUBKTNV-1" source="MOtrbbV4XvPzGapGwvdg-117" target="MOtrbbV4XvPzGapGwvdg-115" edge="1">
          <mxGeometry relative="1" as="geometry" />
        </mxCell>
        <mxCell id="MOtrbbV4XvPzGapGwvdg-117" value="" style="verticalLabelPosition=bottom;verticalAlign=top;html=1;shape=mxgraph.flowchart.parallel_mode;pointerEvents=1;rounded=1;shadow=1;glass=0;sketch=0;strokeWidth=1;gradientColor=none;" parent="WIyWlLk6GJQsqaUBKTNV-1" vertex="1">
          <mxGeometry x="-400" y="2343" width="95" height="40" as="geometry" />
        </mxCell>
        <mxCell id="MOtrbbV4XvPzGapGwvdg-118" style="edgeStyle=orthogonalEdgeStyle;rounded=0;orthogonalLoop=1;jettySize=auto;html=1;exitX=0;exitY=0.5;exitDx=0;exitDy=0;entryX=0.5;entryY=1;entryDx=0;entryDy=0;" parent="WIyWlLk6GJQsqaUBKTNV-1" edge="1">
          <mxGeometry relative="1" as="geometry">
            <mxPoint x="-560" y="2446" as="sourcePoint" />
            <mxPoint x="-650" y="2375" as="targetPoint" />
          </mxGeometry>
        </mxCell>
        <mxCell id="MOtrbbV4XvPzGapGwvdg-119" value="retry" style="rounded=1;whiteSpace=wrap;html=1;absoluteArcSize=1;arcSize=14;strokeWidth=2;fillColor=#fff2cc;strokeColor=#d6b656;" parent="WIyWlLk6GJQsqaUBKTNV-1" vertex="1">
          <mxGeometry x="-560" y="2425.75" width="77" height="50.5" as="geometry" />
        </mxCell>
        <mxCell id="MOtrbbV4XvPzGapGwvdg-120" style="edgeStyle=orthogonalEdgeStyle;rounded=0;orthogonalLoop=1;jettySize=auto;html=1;exitX=0;exitY=0.5;exitDx=0;exitDy=0;entryX=1;entryY=0.5;entryDx=0;entryDy=0;" parent="WIyWlLk6GJQsqaUBKTNV-1" source="MOtrbbV4XvPzGapGwvdg-122" target="MOtrbbV4XvPzGapGwvdg-123" edge="1">
          <mxGeometry relative="1" as="geometry" />
        </mxCell>
        <mxCell id="MOtrbbV4XvPzGapGwvdg-121" style="edgeStyle=orthogonalEdgeStyle;rounded=0;orthogonalLoop=1;jettySize=auto;html=1;exitX=0.5;exitY=0;exitDx=0;exitDy=0;entryX=0;entryY=0.5;entryDx=0;entryDy=0;entryPerimeter=0;" parent="WIyWlLk6GJQsqaUBKTNV-1" source="MOtrbbV4XvPzGapGwvdg-122" target="MOtrbbV4XvPzGapGwvdg-110" edge="1">
          <mxGeometry relative="1" as="geometry" />
        </mxCell>
        <mxCell id="MOtrbbV4XvPzGapGwvdg-122" value="if reach the retry count" style="rhombus;whiteSpace=wrap;html=1;rounded=1;strokeWidth=2;arcSize=14;fillColor=#f8cecc;strokeColor=#b85450;" parent="WIyWlLk6GJQsqaUBKTNV-1" vertex="1">
          <mxGeometry x="-690" y="2300" width="80" height="80" as="geometry" />
        </mxCell>
        <mxCell id="MOtrbbV4XvPzGapGwvdg-123" value="record error" style="rounded=1;whiteSpace=wrap;html=1;absoluteArcSize=1;arcSize=14;strokeWidth=2;fillColor=#fff2cc;strokeColor=#d6b656;" parent="WIyWlLk6GJQsqaUBKTNV-1" vertex="1">
          <mxGeometry x="-800" y="2314.75" width="77" height="50.5" as="geometry" />
        </mxCell>
        <mxCell id="MOtrbbV4XvPzGapGwvdg-124" value="" style="endArrow=none;dashed=1;html=1;exitX=1;exitY=0.5;exitDx=0;exitDy=0;entryX=0;entryY=0.5;entryDx=0;entryDy=0;entryPerimeter=0;" parent="WIyWlLk6GJQsqaUBKTNV-1" source="MOtrbbV4XvPzGapGwvdg-104" target="MOtrbbV4XvPzGapGwvdg-57" edge="1">
          <mxGeometry width="50" height="50" relative="1" as="geometry">
            <mxPoint x="-180" y="1970" as="sourcePoint" />
            <mxPoint x="-130" y="1920" as="targetPoint" />
          </mxGeometry>
        </mxCell>
        <mxCell id="MOtrbbV4XvPzGapGwvdg-125" style="edgeStyle=orthogonalEdgeStyle;rounded=0;orthogonalLoop=1;jettySize=auto;html=1;exitX=0.5;exitY=1;exitDx=0;exitDy=0;entryX=0.5;entryY=0;entryDx=0;entryDy=0;entryPerimeter=0;exitPerimeter=0;" parent="WIyWlLk6GJQsqaUBKTNV-1" source="MOtrbbV4XvPzGapGwvdg-40" target="MOtrbbV4XvPzGapGwvdg-47" edge="1">
          <mxGeometry relative="1" as="geometry">
            <mxPoint x="338" y="1410" as="sourcePoint" />
          </mxGeometry>
        </mxCell>
      </root>
    </mxGraphModel>
  </diagram>
</mxfile>
